<?xml version="1.0" standalone="no"?>
<!DOCTYPE svg PUBLIC "-//W3C//DTD SVG 20010904//EN"
 "http://www.w3.org/TR/2001/REC-SVG-20010904/DTD/svg10.dtd">
<svg version="1.0" xmlns="http://www.w3.org/2000/svg"
 width="708.000000pt" height="708.000000pt" viewBox="0 0 708.000000 708.000000"
 preserveAspectRatio="xMidYMid meet">
<metadata>
Created by potrace 1.11, written by Peter Selinger 2001-2013
</metadata>
<g transform="translate(0.000000,708.000000) scale(0.100000,-0.100000)"
fill="#000000" stroke="none">
<path d="M580 4203 c0 -2759 1 -2871 19 -2958 85 -412 376 -681 834 -771 66
-13 190 -18 647 -24 521 -6 574 -9 677 -28 213 -41 389 -111 543 -215 59 -39
178 -134 210 -167 34 -35 37 -34 118 38 176 155 373 260 591 317 175 45 206
47 796 55 609 9 620 9 810 65 183 54 367 174 482 315 69 84 145 239 180 365
l28 100 3 2888 2 2887 -2970 0 -2970 0 0 -2867z m2825 2461 c-146 -124 -183
-144 -270 -144 -48 0 -70 6 -110 29 -84 48 -97 78 -22 46 20 -8 50 -15 67 -15
16 0 30 -4 30 -10 0 -19 66 -10 126 19 63 30 99 60 49 41 -17 -7 -24 -7 -20 0
11 17 68 43 105 47 19 2 36 6 39 8 2 3 11 5 20 5 11 -1 7 -9 -14 -26z m210 14
c36 -16 32 -32 -7 -23 -42 11 -96 9 -111 -3 -7 -5 -31 -12 -55 -16 -50 -7 -49
4 2 35 36 22 130 26 171 7z m85 -72 c-8 -55 -31 -98 -45 -84 -4 3 0 26 9 51 8
24 12 54 9 65 -3 12 -2 29 1 39 6 14 9 15 20 2 11 -11 12 -28 6 -73z m-66 28
c9 -4 16 -18 16 -34 0 -36 -16 -48 -23 -17 -2 12 -8 30 -12 40 -8 18 -5 20 19
11z m-164 -24 c-8 -5 -17 -7 -19 -4 -3 3 1 9 9 14 8 5 17 7 19 4 3 -3 -1 -9
-9 -14z m121 1 c20 -16 22 -23 14 -47 -12 -33 -35 -44 -35 -17 0 23 -35 63
-55 63 -8 0 -15 5 -15 10 0 17 67 11 91 -9z m-1637 -161 c109 -137 134 -180
103 -180 -8 0 -65 75 -128 167 -166 243 -160 246 25 13z m1426 130 c0 -5 -4
-10 -10 -10 -5 0 -10 5 -10 10 0 6 5 10 10 10 6 0 10 -4 10 -10z m158 -22 c-4
-29 -83 -83 -151 -103 -28 -8 -52 -13 -55 -11 -7 8 83 67 111 73 15 3 27 10
27 15 0 15 -56 0 -145 -38 -96 -40 -106 -42 -76 -10 31 33 128 75 198 85 94
14 95 14 91 -11z m83 -41 c-13 -13 -26 -3 -16 12 3 6 11 8 17 5 6 -4 6 -10 -1
-17z m-366 -6 c-37 -37 -138 -91 -169 -91 -32 0 -65 15 -55 25 3 3 32 12 63
20 31 8 78 26 104 39 59 31 85 34 57 7z m415 -20 c0 -5 -7 -11 -15 -15 -9 -3
-15 0 -15 9 0 8 7 15 15 15 8 0 15 -4 15 -9z m-105 -41 c10 -58 -21 -88 -64
-61 -18 11 -8 54 19 81 29 29 37 25 45 -20z m-250 10 c-3 -5 -10 -10 -16 -10
-5 0 -9 5 -9 10 0 6 7 10 16 10 8 0 12 -4 9 -10z m307 -17 c25 -23 24 -63 -2
-63 -14 0 -20 7 -20 24 0 13 -3 31 -6 40 -8 21 5 20 28 -1z m-152 -22 c0 -6
-4 -13 -10 -16 -5 -3 -10 1 -10 9 0 9 5 16 10 16 6 0 10 -4 10 -9z m114 -87
c10 -38 -3 -94 -23 -95 -9 -1 -32 -2 -52 -3 l-36 -1 -2 47 c-1 58 17 78 69 78
32 0 39 -4 44 -26z m71 6 c10 -11 15 -23 12 -26 -3 -4 -2 -15 4 -25 11 -22 2
-69 -15 -69 -29 1 -40 20 -42 79 -3 66 8 77 41 41z m-1442 -67 c20 -12 2 -23
-38 -23 -36 0 -47 -4 -61 -25 -9 -14 -20 -25 -25 -25 -18 0 -8 42 16 66 21 21
31 24 62 18 21 -4 41 -9 46 -11z m1215 -19 c-9 -9 -21 -13 -28 -9 -14 9 5 25
30 25 12 0 12 -3 -2 -16z m-1214 -29 c3 -10 -1 -18 -12 -21 -32 -10 -66 -32
-71 -46 -2 -8 3 -7 15 4 31 27 74 40 90 27 19 -15 18 -29 -2 -29 -9 0 -29 -11
-46 -25 -35 -29 -31 -31 17 -8 24 11 38 14 45 7 16 -16 1 -42 -31 -53 -24 -8
-29 -16 -29 -41 0 -27 -3 -31 -22 -28 -25 3 -108 100 -108 125 0 8 20 35 44
59 46 47 98 60 110 29z m1437 -31 c54 -32 47 -51 -23 -68 -26 -6 -28 -4 -28
24 0 36 -21 40 -43 8 -14 -21 -16 -22 -33 -7 -23 20 -96 15 -88 -6 3 -7 1 -16
-5 -20 -6 -3 -11 -10 -11 -14 0 -12 77 -34 94 -28 13 5 16 -1 16 -32 0 -28 -5
-41 -17 -46 -16 -6 -16 -8 6 -26 47 -38 71 -15 71 69 0 22 3 24 31 18 17 -3
38 -6 45 -6 20 0 17 -44 -6 -92 -11 -23 -20 -47 -20 -53 0 -7 -20 -34 -44 -60
-37 -39 -48 -46 -68 -40 -33 10 -88 54 -88 70 0 7 -8 21 -17 30 -10 11 -17 34
-17 65 -1 26 -7 55 -15 64 -16 20 -8 98 14 132 8 12 31 27 52 32 55 16 156 8
194 -14z m-291 -38 c0 -37 -22 -72 -38 -62 -9 5 -8 15 3 36 8 16 15 38 15 50
0 12 5 18 10 15 6 -3 10 -21 10 -39z m226 -23 c-10 -10 -19 5 -10 18 6 11 8
11 12 0 2 -7 1 -15 -2 -18z m-93 -18 c-4 -15 -36 -12 -41 3 -3 9 3 13 19 10
13 -1 23 -7 22 -13z m-1203 -20 c0 -8 -7 -15 -15 -15 -16 0 -20 12 -8 23 11
12 23 8 23 -8z m1378 -3 c2 -7 -6 -12 -17 -12 -21 0 -27 11 -14 24 9 9 26 2
31 -12z m-91 -48 c-6 -55 -12 -72 -22 -62 -9 9 7 118 18 118 6 0 8 -21 4 -56z
m-1207 -2 l25 -16 -48 -7 c-83 -13 -118 -52 -103 -114 9 -36 -18 -33 -34 5
-22 53 8 122 63 145 35 15 58 12 97 -13z m970 -20 c0 -31 46 -117 94 -175 39
-49 44 -58 29 -64 -24 -9 -87 65 -112 133 -27 70 -38 140 -23 130 7 -4 12 -15
12 -24z m1203 -21 c82 -21 127 -45 127 -67 0 -17 -5 -17 -33 -2 -29 15 -87 30
-115 29 -13 -1 -32 3 -41 9 -15 8 -17 6 -13 -15 6 -35 -3 -31 -32 12 -41 59
-20 66 107 34z m373 -61 c33 -12 74 -66 74 -98 0 -34 -29 -26 -45 12 -8 19
-19 37 -24 41 -6 3 -4 -10 4 -29 8 -20 15 -46 15 -59 0 -13 7 -32 15 -43 20
-26 19 -46 -2 -42 -11 2 -22 20 -29 48 -11 40 -12 42 -14 15 -1 -26 -3 -27
-10 -10 -5 11 -9 37 -9 58 -1 48 -30 77 -73 76 -34 -1 -31 -3 13 -13 37 -8 57
-57 39 -94 l-13 -27 -9 43 -9 42 -52 0 c-61 0 -76 8 -79 40 -3 22 2 25 52 36
71 15 120 16 156 4z m-2346 -303 c332 -446 769 -1048 1380 -1902 767 -1073
783 -1095 791 -1090 5 4 29 -68 29 -90 0 -14 -62 32 -74 55 -7 14 -206 288
-442 610 -1355 1842 -1954 2671 -1954 2701 0 13 7 19 23 19 17 -1 70 -65 247
-303z m1998 279 c3 -12 -1 -17 -10 -14 -7 3 -15 13 -16 22 -3 12 1 17 10 14 7
-3 15 -13 16 -22z m-174 -12 c16 -6 22 -33 9 -35 -5 -1 -57 -3 -118 -4 -64 -2
-124 -8 -143 -16 -30 -13 -21 -14 92 -10 81 2 126 -1 126 -7 0 -17 -20 -19
-106 -14 -48 3 -102 0 -132 -8 -57 -13 -136 -65 -126 -81 3 -6 -3 -20 -14 -32
-28 -32 -44 -66 -38 -83 3 -8 -8 -29 -25 -47 l-31 -32 6 50 c8 68 56 165 106
215 46 46 123 86 192 99 52 11 180 13 202 5z m-744 -53 c0 -11 -42 -43 -48
-37 -2 3 1 14 8 25 11 21 40 29 40 12z m903 -46 c3 -29 10 -62 16 -72 8 -13 9
-1 5 50 -8 79 9 93 27 22 15 -60 28 -66 21 -10 -4 38 -2 44 11 40 8 -4 18 -25
21 -49 4 -24 13 -52 21 -62 13 -17 13 -15 5 16 -6 19 -10 46 -10 60 l1 25 15
-27 c19 -37 26 -35 22 5 -3 31 -2 32 38 35 30 2 45 -2 59 -18 18 -19 18 -20 0
-20 -18 0 -18 -1 1 -15 16 -13 17 -16 4 -25 -12 -8 -9 -10 13 -10 20 0 30 -7
37 -25 6 -17 17 -25 33 -25 34 0 117 -30 117 -42 0 -6 -14 -8 -31 -6 l-31 5
22 -17 c27 -20 19 -40 -15 -40 -13 0 -32 -3 -42 -7 -14 -6 -10 -9 17 -13 22
-4 34 -11 32 -19 -4 -17 26 -51 44 -51 7 0 18 9 24 20 11 20 12 20 47 -7 36
-27 36 -28 12 -34 -15 -4 -18 -7 -7 -8 23 -1 34 -21 17 -32 -11 -7 -9 -9 6 -9
11 0 31 -7 44 -16 l24 -17 -24 -13 -24 -13 26 -1 c28 0 64 -29 38 -31 -8 0 -3
-5 11 -10 24 -10 24 -11 6 -25 -19 -14 -19 -14 1 -14 11 0 26 -7 33 -14 6 -8
27 -20 46 -26 35 -12 43 -25 22 -33 -7 -3 -3 -6 10 -6 59 -2 89 -57 35 -63
-26 -3 -28 -6 -28 -52 0 -53 21 -77 27 -30 4 39 28 44 28 6 0 -44 -9 -62 -33
-62 -33 0 -67 39 -67 77 0 18 -4 33 -10 33 -5 0 -16 14 -25 30 -19 38 -47 39
-82 3 -16 -15 -29 -21 -31 -14 -2 6 -7 9 -12 6 -4 -3 -21 2 -36 10 -20 10 -32
11 -41 3 -10 -8 -13 -6 -13 6 0 10 -5 14 -11 10 -7 -4 -20 4 -30 17 -16 21
-18 22 -24 6 -11 -26 -25 -20 -26 11 -1 24 -2 23 -8 -8 l-7 -35 -17 32 c-11
20 -22 30 -31 27 -10 -4 -19 9 -30 43 l-15 48 5 -52 c7 -65 -10 -72 -26 -10
-25 97 -38 110 -21 19 7 -37 6 -43 -8 -40 -11 2 -21 26 -33 78 l-18 75 4 -62
c2 -35 1 -63 -4 -63 -4 0 -13 36 -20 80 -7 44 -17 80 -22 80 -5 0 -7 -12 -4
-27 14 -78 17 -111 7 -117 -6 -4 -13 9 -16 31 -4 21 -10 56 -15 78 -7 38 -8
36 -9 -25 -2 -100 -21 -53 -21 55 -1 106 -14 90 -25 -31 -8 -99 6 -137 71
-192 51 -42 57 -59 14 -37 -16 8 -32 15 -35 15 -4 0 8 -25 26 -56 17 -31 33
-64 34 -73 4 -41 20 -78 43 -103 l26 -28 -24 0 c-23 0 -23 -1 11 -36 19 -19
26 -32 17 -29 -30 12 -20 -11 17 -39 19 -15 35 -34 35 -42 0 -16 -16 -19 -25
-4 -3 6 -12 10 -18 10 -7 -1 12 -23 42 -50 59 -54 63 -72 9 -44 -31 16 -30 13
20 -39 70 -75 72 -101 3 -50 -29 21 -26 15 17 -28 65 -68 73 -107 12 -59 -48
38 -44 20 8 -33 29 -29 52 -56 52 -60 0 -5 -20 6 -45 23 -25 17 -51 30 -56 28
-6 -2 16 -37 50 -77 34 -40 61 -77 61 -82 0 -17 -19 -9 -55 22 -19 17 -35 28
-35 24 0 -4 23 -38 50 -76 48 -65 59 -89 43 -89 -4 0 -32 26 -61 58 -62 66
-59 56 15 -50 29 -42 53 -79 53 -82 0 -18 -22 0 -56 44 -21 27 -40 48 -42 46
-2 -2 15 -33 37 -69 23 -35 41 -68 41 -72 0 -4 -18 12 -40 36 l-41 44 41 -64
c22 -35 40 -69 40 -75 0 -11 -8 -3 -64 68 -46 58 -43 32 3 -29 62 -82 60 -98
-5 -30 -61 64 -61 59 0 -18 24 -30 36 -55 34 -70 -3 -19 -7 -17 -34 23 -18 25
-44 56 -60 70 -25 22 -24 19 9 -28 20 -28 37 -57 37 -62 0 -19 -22 -10 -45 18
-13 15 -34 38 -45 52 l-22 25 21 -38 c25 -45 25 -47 7 -47 -7 0 -38 23 -67 50
-73 69 -85 67 -36 -3 l20 -29 -49 7 c-77 10 -82 13 -118 68 -19 29 -51 68 -71
87 -33 31 -31 27 14 -34 29 -37 50 -73 48 -80 -7 -20 -51 -7 -77 23 -44 51
-384 451 -408 481 -15 18 -22 38 -20 56 3 24 9 18 73 -67 38 -52 119 -143 178
-204 122 -123 109 -91 -17 44 -166 178 -226 265 -226 327 0 24 5 19 38 -34 65
-108 119 -175 224 -277 114 -111 106 -95 -17 35 -100 105 -152 175 -199 263
-51 98 -45 115 10 27 58 -95 132 -185 230 -280 99 -96 85 -72 -29 52 -114 123
-160 186 -204 271 -45 90 -38 106 12 26 50 -82 177 -238 254 -314 97 -95 71
-55 -50 77 -134 146 -159 180 -211 281 -49 97 -46 132 3 45 20 -35 58 -92 85
-127 57 -75 212 -241 226 -241 5 0 -39 52 -98 115 -126 135 -164 186 -210 280
-44 90 -47 142 -3 59 57 -109 154 -230 251 -315 32 -28 58 -48 58 -44 0 3 -49
57 -109 120 -106 111 -163 191 -210 299 -11 27 -21 58 -20 70 0 14 8 3 23 -30
52 -114 167 -262 267 -344 65 -53 47 -31 -92 115 -76 81 -104 119 -139 191
-51 103 -57 152 -33 287 52 304 198 518 393 578 52 16 57 12 63 -46z m-2092
-184 c63 -96 69 -108 68 -155 l-1 -51 -13 40 -13 40 -1 -50 c-2 -65 -17 -43
-26 37 -4 32 -11 58 -16 58 -5 0 -9 -8 -9 -17 0 -15 -2 -16 -10 -3 -5 8 -10
27 -10 43 0 15 -4 27 -10 27 -6 0 -10 -30 -11 -67 -1 -85 -17 -57 -19 32 -2
58 -2 59 -14 31 l-13 -29 -7 27 c-4 15 -4 50 0 79 8 60 -5 56 -23 -6 l-11 -42
-1 63 c-1 39 -5 61 -11 57 -6 -4 -10 11 -10 36 l0 43 46 -44 c25 -25 77 -92
115 -149z m1805 179 c42 -16 21 -24 -69 -26 -48 -1 -100 -8 -126 -18 -54 -20
-65 -14 -19 10 78 41 161 54 214 34z m27 -55 c-1 -5 -28 -14 -60 -21 -135 -28
-144 -32 -221 -111 -40 -41 -75 -73 -77 -71 -3 2 11 27 30 55 38 56 79 89 134
109 28 10 31 13 13 14 -29 0 -79 -25 -114 -58 -20 -19 -28 -22 -28 -11 0 30
59 71 135 95 45 15 191 14 188 -1z m-119 -51 c25 -10 19 -22 -23 -43 -58 -30
-151 -119 -151 -145 0 -12 -5 -27 -11 -33 -6 -6 -17 -22 -23 -35 -6 -12 -24
-29 -39 -36 -34 -16 -79 -72 -84 -103 -4 -28 -72 -101 -86 -92 -24 15 54 197
106 247 18 17 36 39 40 49 3 9 11 17 17 17 6 0 8 -4 5 -10 -3 -5 -2 -10 4 -10
5 0 23 19 40 43 39 56 86 100 141 131 52 30 44 28 64 20z m26 -63 c0 -5 -13
-12 -28 -16 -16 -3 -53 -30 -82 -60 -30 -30 -58 -55 -62 -55 -30 0 30 73 91
112 45 28 81 36 81 19z m-1323 -62 c-3 -12 0 -22 9 -26 18 -7 18 -14 -1 -39
-15 -18 -15 -18 -9 9 4 17 2 27 -5 27 -6 0 -11 -3 -11 -7 0 -5 -11 -21 -25
-38 l-25 -30 11 30 c12 34 48 95 56 95 3 0 3 -9 0 -21z m918 1 c18 -19 17 -20
-3 -20 -12 0 -22 2 -22 4 0 2 -3 11 -6 20 -9 22 9 20 31 -4z m375 2 c0 -23
-131 -217 -184 -272 -21 -23 -58 -50 -82 -62 -24 -11 -44 -24 -44 -29 0 -5 11
-3 25 3 44 20 40 0 -10 -44 -61 -55 -75 -62 -87 -50 -6 6 -23 -4 -49 -29 -32
-31 -39 -45 -39 -76 0 -21 -5 -45 -10 -53 -32 -48 -36 90 -5 150 8 16 32 41
52 56 52 38 209 198 261 266 48 63 145 158 161 158 6 0 11 -8 11 -18z m-346
-48 c4 -9 4 -19 1 -23 -8 -7 -38 12 -43 27 -6 19 35 14 42 -4z m-743 -96 c-7
-22 -13 -38 -15 -36 -1 1 0 32 2 68 4 58 6 62 15 36 6 -20 6 -41 -2 -68z m132
-52 c12 -3 25 0 29 7 5 8 8 7 8 -4 0 -11 9 -16 30 -16 23 0 30 5 31 21 0 17 2
16 11 -6 5 -16 16 -28 24 -28 8 0 14 11 15 28 l1 27 10 -28 c13 -36 31 -30 39
14 l6 34 2 -32 c1 -38 30 -47 32 -10 l2 22 4 -22 c8 -40 26 -26 20 15 l-6 37
11 -32 c17 -52 30 -39 24 25 l-5 57 19 -55 c22 -65 25 -185 5 -245 -12 -39
-13 -38 -7 29 4 51 2 67 -6 62 -7 -4 -12 -17 -13 -29 0 -12 -4 -31 -9 -42 -6
-14 -7 -6 -3 23 7 52 -9 56 -25 5 -11 -36 -11 -36 -7 -5 3 22 0 32 -9 32 -8 0
-17 -19 -22 -52 l-8 -53 -4 53 c-4 70 -25 64 -33 -9 l-6 -54 -2 45 c-1 45 -15
80 -26 69 -3 -3 -9 -33 -14 -65 l-9 -59 -1 68 c-1 50 -5 67 -15 67 -9 0 -17
-20 -24 -57 l-9 -58 -2 62 c-2 105 -29 80 -32 -31 -2 -38 -2 -38 -9 14 -4 30
-5 65 -3 78 4 15 0 22 -10 22 -15 0 -26 -42 -28 -115 l-2 -40 -7 43 c-3 24 -4
64 0 88 7 46 -1 57 -20 27 -9 -16 -10 -15 -8 6 5 38 -15 34 -34 -7 -16 -34
-17 -34 -12 -7 4 17 9 66 13 110 l7 80 10 -44 c10 -49 34 -68 34 -28 0 13 3
40 8 58 6 30 7 27 10 -27 3 -54 6 -63 25 -68z m527 65 c-1 -12 -5 -11 -20 8
-11 13 -20 31 -20 40 1 12 5 11 20 -8 11 -13 20 -31 20 -40z m-35 -59 c-2 -42
-4 -47 -23 -44 -16 2 -22 -2 -22 -17 0 -13 -5 -18 -13 -15 -7 2 -22 -4 -32
-16 -10 -11 -21 -20 -25 -20 -14 0 -19 120 -6 145 7 14 16 22 19 18 4 -3 7 7
7 23 l1 29 19 -24 20 -23 0 28 1 29 28 -33 c23 -27 28 -41 26 -80z m85 54 c-1
-6 -10 0 -20 13 -11 13 -20 28 -20 35 1 6 10 0 20 -13 11 -13 20 -28 20 -35z
m40 44 c0 -5 -2 -10 -4 -10 -3 0 -8 5 -11 10 -3 6 -1 10 4 10 6 0 11 -4 11
-10z m-820 -40 c-6 -12 -14 -19 -17 -16 -4 3 0 18 8 32 7 14 15 21 17 15 2 -5
-2 -20 -8 -31z m-4 -86 c-3 -8 -10 -14 -16 -14 -14 0 -13 33 3 49 10 10 13 9
15 -4 2 -9 1 -23 -2 -31z m1064 -46 c0 -31 -51 -117 -81 -139 -19 -13 -47 -39
-63 -57 -16 -19 -36 -32 -46 -30 -26 4 -127 -95 -135 -132 -4 -16 -11 -32 -16
-35 -12 -8 -11 38 2 67 31 68 51 92 127 147 46 32 92 72 104 88 32 42 91 103
100 103 4 0 8 -6 8 -12z m-24 -170 c-4 -18 -9 -47 -10 -64 -2 -17 -11 -45 -20
-62 -9 -17 -16 -44 -16 -59 0 -45 -18 -98 -40 -118 -11 -10 -23 -16 -26 -13
-11 12 29 194 51 233 13 22 28 57 35 78 14 46 35 50 26 5z m-66 -39 c0 -6 -9
-24 -20 -40 -12 -15 -27 -50 -35 -76 -16 -54 -69 -143 -85 -143 -13 0 -12 10
5 40 24 43 16 47 -12 6 -40 -56 -40 -24 0 70 23 54 41 83 58 91 14 7 35 23 49
37 25 28 40 33 40 15z m-230 -43 c0 -16 -18 -31 -27 -22 -8 8 5 36 17 36 5 0
10 -6 10 -14z m1465 -26 c36 -37 37 -40 17 -40 -26 0 -72 41 -72 65 0 24 13
18 55 -25z m-1421 -96 c-9 -21 -20 -64 -23 -94 -4 -41 -10 -56 -24 -58 -27 -5
-32 26 -11 86 17 51 61 118 70 109 3 -2 -3 -21 -12 -43z m116 -93 c0 -36 -36
-89 -79 -118 -34 -23 -91 -31 -91 -13 0 6 22 25 48 44 26 19 62 53 80 75 18
23 35 41 37 41 3 0 5 -13 5 -29z m-610 -11 c0 -10 -4 -22 -10 -25 -6 -4 -10 7
-10 25 0 18 4 29 10 25 6 -3 10 -15 10 -25z m-35 2 c0 -18 -20 -15 -23 4 -3
10 1 15 10 12 7 -3 13 -10 13 -16z m765 -31 c0 -15 -16 -59 -35 -97 -34 -70
-75 -117 -176 -209 -30 -28 -82 -86 -114 -129 -33 -43 -61 -74 -63 -68 -9 27
49 106 152 207 125 122 152 158 191 258 29 71 45 85 45 38z m-678 -3 c-9 -9
-15 -9 -24 0 -9 9 -7 12 12 12 19 0 21 -3 12 -12z m615 -31 c-19 -35 -99 -90
-188 -130 -31 -13 -74 -41 -96 -61 -48 -43 -53 -44 -53 -12 0 35 59 80 147
112 54 20 91 42 134 81 66 58 84 61 56 10z m-592 -6 c3 -5 1 -12 -5 -16 -5 -3
-10 1 -10 9 0 18 6 21 15 7z m160 -33 c-9 -54 -12 -58 -36 -58 -13 0 -19 7
-19 24 0 28 -16 43 -49 48 -14 1 -26 9 -29 16 -3 9 15 12 68 12 l72 0 -7 -42z
m490 -50 c-22 -110 -48 -160 -96 -186 -57 -31 -160 -126 -205 -189 -42 -58
-64 -77 -64 -54 0 6 18 31 40 56 22 25 40 53 40 62 0 8 53 68 118 132 86 85
124 130 138 164 22 54 39 62 29 15z m-105 -8 c0 -22 -54 -60 -106 -75 -53 -15
-110 -60 -134 -106 -9 -15 4 -10 48 21 33 23 66 40 73 38 10 -3 9 -7 -2 -16
-66 -53 -102 -90 -124 -128 -27 -47 -53 -54 -47 -14 3 17 0 21 -12 17 -25 -10
-19 13 17 73 35 59 71 89 187 155 78 45 100 52 100 35z m305 -392 c109 -134
203 -249 208 -255 6 -9 5 -13 -5 -13 -20 0 -402 457 -406 486 -2 13 -1 24 1
24 3 0 94 -109 202 -242z m-98 50 c256 -313 259 -318 234 -318 -14 0 -55 45
-216 236 -113 135 -143 176 -138 193 3 11 7 21 8 21 2 0 52 -60 112 -132z
m-237 81 c-56 -49 -80 -64 -80 -48 0 22 77 89 101 89 22 -1 20 -4 -21 -41z
m88 -21 c-2 -22 -9 -34 -20 -36 -20 -4 -24 19 -8 49 16 30 32 22 28 -13z
m-937 -6 c-34 -48 -56 -60 -26 -14 15 23 32 42 37 42 5 0 0 -13 -11 -28z m846
-30 c-8 -9 -26 -40 -40 -68 -14 -27 -33 -56 -41 -63 -14 -12 -16 -10 -16 10 1
39 35 103 71 133 34 29 54 20 26 -12z m263 -138 c80 -97 147 -180 148 -185 2
-5 -2 -9 -10 -9 -20 0 -298 326 -298 350 0 11 3 20 8 20 4 0 72 -80 152 -176z
m-875 106 c-8 -24 -5 -24 40 -3 35 17 53 14 40 -7 -10 -17 -244 -127 -298
-141 -57 -14 -169 -8 -191 10 -14 11 -14 16 -1 41 17 34 45 47 45 22 1 -13 5
-12 20 8 51 68 51 68 40 36 -14 -38 -7 -43 14 -11 9 14 24 25 32 25 13 0 11
-8 -10 -44 -26 -45 -32 -66 -18 -66 4 0 17 24 30 53 40 91 77 122 48 40 -13
-37 -13 -39 4 -38 10 1 25 7 34 14 14 11 16 11 16 -4 0 -13 3 -15 13 -6 8 6
17 8 21 4 3 -4 14 4 23 16 10 15 18 19 22 12 5 -7 19 1 39 24 37 40 46 44 37
15z m502 -27 c-3 -10 -5 -2 -5 17 0 19 2 27 5 18 2 -10 2 -26 0 -35z m325
-100 c135 -162 135 -163 110 -163 -12 0 -62 47 -132 125 -96 107 -111 129
-106 150 4 14 8 25 10 25 1 0 54 -62 118 -137z m1017 29 c0 -119 -12 -220 -28
-235 -11 -10 -12 16 -6 143 7 165 11 194 26 185 5 -4 9 -45 8 -93z m-1050 -82
c102 -120 85 -136 -28 -28 -89 83 -93 90 -85 125 8 29 0 36 113 -97z m-638 23
c-11 -21 -71 -58 -71 -44 0 11 58 61 71 61 6 0 6 -6 0 -17z m596 -55 c66 -59
72 -68 46 -68 -26 0 -113 78 -113 101 0 10 2 19 5 19 3 0 31 -23 62 -52z
m-2009 -36 c69 -29 177 -97 241 -152 l34 -29 -34 -5 c-135 -22 -169 -30 -223
-50 -34 -13 -69 -27 -78 -31 -10 -4 -18 -3 -18 1 0 12 61 50 118 75 33 14 38
18 17 14 -58 -11 -176 -77 -235 -132 -33 -31 -63 -54 -65 -51 -9 9 54 84 102
120 27 20 78 51 113 67 36 17 57 31 46 31 -27 0 -114 -46 -175 -93 -147 -113
-282 -364 -331 -614 -7 -35 -17 -63 -21 -63 -12 0 -12 5 10 117 56 285 208
526 404 639 80 46 80 58 0 18 -73 -35 -190 -151 -261 -257 -101 -152 -147
-277 -177 -475 -19 -130 -53 -200 -125 -261 -35 -30 -61 -63 -78 -100 -14 -30
-27 -50 -29 -44 -8 22 34 98 85 157 76 86 99 144 133 328 37 201 67 278 156
404 83 115 162 195 253 254 73 48 53 46 -29 -3 -80 -48 -171 -144 -255 -270
-86 -128 -114 -203 -145 -380 -25 -140 -49 -212 -91 -275 -43 -67 -98 -128
-106 -120 -8 9 14 43 72 115 47 57 65 108 84 233 30 194 102 376 198 500 53
68 62 100 11 40 -59 -70 -127 -179 -157 -252 -18 -44 -46 -148 -67 -253 -38
-189 -51 -223 -113 -302 -22 -27 -54 -72 -71 -99 -22 -35 -31 -43 -31 -28 0
20 31 73 89 149 42 54 68 133 92 278 13 78 34 157 58 219 65 165 203 349 326
433 65 46 71 55 13 23 -105 -58 -238 -214 -320 -374 -57 -111 -71 -155 -103
-319 -14 -71 -30 -145 -36 -163 -12 -36 -127 -197 -136 -189 -13 14 25 86 68
130 32 32 50 59 53 80 33 245 67 364 147 516 27 52 47 96 45 99 -6 5 -53 -42
-79 -78 l-18 -25 6 25 c4 14 29 71 56 127 36 74 68 121 116 173 143 155 290
194 461 122z m1242 28 c0 -5 -4 -10 -10 -10 -5 0 -10 5 -10 10 0 6 5 10 10 10
6 0 10 -4 10 -10z m69 -16 c-25 -30 -91 -74 -112 -74 -19 0 -18 2 8 30 28 29
105 73 113 65 3 -3 -1 -12 -9 -21z m-111 -1 c-4 -22 -22 -20 -26 1 -2 10 3 16
13 16 10 0 15 -7 13 -17z m211 -5 l-11 -21 36 22 c39 24 49 16 16 -14 -31 -28
-16 -30 26 -4 37 22 39 15 6 -23 -13 -15 -13 -18 -1 -18 8 1 25 7 39 15 32 18
46 19 31 1 -9 -11 -6 -13 16 -10 24 4 22 1 -12 -15 -52 -26 -39 -30 30 -10 28
8 29 7 11 -6 -11 -8 -23 -15 -28 -15 -4 0 -8 -5 -8 -11 0 -6 9 -8 20 -5 66 19
67 19 40 -3 -29 -24 -27 -24 20 -11 l35 10 -25 -20 -25 -20 35 6 c33 6 34 5
16 -8 -19 -15 -19 -16 3 -27 38 -21 15 -24 -39 -6 -28 9 -60 15 -71 12 -10 -3
-17 -1 -14 3 10 16 -16 22 -32 8 -15 -11 -16 -11 -10 5 7 20 -5 22 -36 5 -19
-10 -21 -9 -9 4 20 24 -4 33 -34 13 -25 -16 -25 -16 -15 4 17 31 -6 37 -36 10
l-26 -24 13 24 c10 19 10 25 -1 32 -18 11 -26 11 -34 -1 -3 -5 -14 -14 -24
-20 -17 -9 -18 -7 -4 33 18 52 28 64 72 87 45 24 44 24 30 -2z m587 -36 c-9
-8 -46 20 -46 35 0 13 5 12 25 -7 14 -13 23 -25 21 -28z m1708 22 c19 -7 21
-34 4 -35 -7 0 -3 -4 10 -9 12 -5 22 -16 22 -25 0 -17 -16 -20 -25 -5 -9 14
-52 13 -57 -2 -7 -21 -28 2 -28 31 0 43 30 62 74 45z m-1681 -137 c52 -67 214
-242 178 -192 -12 17 -63 76 -112 132 -49 55 -89 106 -89 112 0 6 11 11 24 11
17 0 37 -18 74 -67 54 -72 150 -179 136 -153 -4 8 -41 55 -81 103 -40 48 -73
94 -73 102 0 31 27 12 82 -58 31 -40 69 -83 84 -97 15 -14 -3 14 -39 61 -37
48 -67 90 -67 93 0 20 34 0 59 -36 16 -24 48 -63 71 -88 40 -43 39 -42 -14 38
-31 46 -56 85 -56 88 0 2 13 4 28 4 24 0 36 -11 77 -70 27 -38 50 -70 52 -70
5 0 -22 48 -46 85 -52 76 15 57 70 -20 41 -57 48 -58 15 -1 -14 25 -26 47 -26
50 0 15 37 3 61 -20 26 -25 27 -25 22 -5 -10 38 24 24 51 -21 14 -24 26 -38
26 -32 0 5 -7 19 -15 30 -33 43 -7 59 38 24 16 -13 28 -16 32 -10 9 14 44 12
98 -6 52 -18 104 -69 138 -136 l21 -43 -38 35 c-32 30 -35 31 -21 9 9 -15 32
-57 51 -94 65 -122 37 -125 -36 -3 -22 37 -42 68 -44 68 -5 0 12 -43 41 -100
37 -73 24 -73 -20 -1 -20 34 -38 61 -41 61 -8 0 75 -158 86 -165 7 -4 9 -21 5
-45 -6 -33 -3 -40 24 -63 48 -40 108 -42 318 -13 100 14 209 26 242 26 57 0
61 -1 96 -42 35 -41 37 -38 12 24 -15 37 -5 44 33 22 38 -23 70 -87 70 -142 0
-48 -5 -50 -55 -21 -25 15 -34 26 -30 38 5 17 -11 37 -43 56 -11 6 -12 3 -2
-14 20 -38 5 -48 -25 -16 -26 28 -27 28 -20 6 8 -26 -1 -24 -45 13 l-25 21 19
-22 c29 -34 16 -46 -26 -23 -52 27 -60 25 -20 -6 17 -14 32 -30 32 -35 0 -12
-44 -2 -95 23 -41 19 -38 15 25 -32 l25 -19 -33 -1 c-18 0 -49 7 -69 15 -45
19 -53 19 -25 -1 12 -8 22 -19 22 -25 0 -17 -35 -9 -124 27 -49 19 -90 33 -93
30 -2 -2 26 -19 63 -38 68 -33 93 -58 57 -58 -10 0 -72 25 -137 55 -66 30
-121 54 -123 52 -2 -2 50 -33 114 -69 121 -67 144 -88 99 -88 -53 0 -252 120
-366 219 -85 75 -107 86 -48 25 26 -27 106 -92 177 -144 123 -90 152 -120 114
-120 -24 0 -136 65 -201 117 l-57 46 53 -54 c28 -30 52 -58 52 -62 0 -52 -242
160 -338 296 -56 80 -87 101 -37 25 59 -91 142 -183 224 -246 138 -109 149
-120 129 -127 -19 -8 -81 31 -173 109 l-60 51 59 -68 c41 -47 56 -71 49 -78
-25 -25 -225 205 -332 384 -12 20 -25 37 -27 37 -11 0 50 -100 116 -190 100
-136 150 -211 150 -222 0 -26 -33 11 -129 146 -58 81 -107 143 -109 137 -2 -5
27 -52 63 -103 71 -98 100 -147 92 -155 -4 -4 -81 91 -165 203 -12 16 -22 24
-22 19 0 -6 27 -47 61 -90 63 -82 98 -140 81 -134 -5 2 -41 41 -81 87 -39 46
-71 81 -71 77 0 -3 9 -24 21 -46 33 -65 17 -65 -25 0 -22 33 -43 58 -47 56
-21 -14 -333 414 -315 432 4 4 34 -20 67 -53 l61 -59 -51 68 c-69 93 -65 116
6 36 94 -104 143 -154 143 -147 0 4 -23 33 -51 65 -75 86 -140 175 -133 182 3
3 49 -39 102 -94 92 -97 62 -58 -72 95 -36 41 -66 78 -66 82 0 5 10 8 23 7 15
0 37 -20 70 -62z m966 -8 c32 -44 12 -60 -23 -19 -24 29 -27 50 -7 50 4 0 18
-14 30 -31z m109 -2 c27 -55 -9 -107 -48 -72 -20 18 -28 83 -13 99 15 15 48 0
61 -27z m412 -52 c-14 -37 -5 -43 19 -14 l20 24 1 -38 c0 -29 -7 -45 -29 -68
-32 -32 -46 -36 -57 -17 -5 8 -12 -4 -19 -32 -6 -25 -15 -43 -20 -40 -23 12
18 180 44 180 9 0 22 9 29 21 18 28 25 18 12 -16z m-652 -27 c69 -96 152 -243
152 -273 0 -30 -20 -14 -45 36 -14 27 -59 99 -100 160 -41 60 -75 114 -75 119
0 26 33 5 68 -42z m-2004 36 c24 -9 19 -33 -6 -38 -13 -3 -63 -7 -113 -9 -68
-3 -100 -9 -132 -25 -49 -26 -73 -28 -73 -7 0 19 78 64 131 74 53 11 171 13
193 5z m2070 -56 c46 -73 93 -159 101 -185 12 -43 -14 -23 -41 30 -15 28 -46
82 -70 118 -24 37 -44 72 -44 78 0 25 22 8 54 -41z m-2669 32 c-3 -5 -23 -9
-43 -9 l-37 2 35 7 c52 11 52 11 45 0z m751 -2 c4 -6 2 -14 -4 -16 -18 -6 -14
-20 6 -25 13 -3 9 -7 -15 -16 -32 -13 -37 -41 -7 -41 20 0 17 -17 -3 -24 -15
-6 -15 -8 -3 -16 13 -8 12 -12 -5 -24 -15 -12 -16 -16 -5 -16 12 -1 11 -3 -3
-14 -18 -14 -18 -15 0 -25 17 -10 17 -10 1 -11 -10 0 -18 -4 -18 -9 0 -5 8
-12 18 -16 16 -6 16 -7 -2 -20 -15 -12 -17 -17 -7 -29 10 -12 8 -16 -8 -21
-24 -7 -27 -21 -8 -28 9 -4 9 -7 -1 -15 -10 -7 -10 -11 3 -22 14 -11 14 -14
-1 -25 -15 -11 -15 -12 2 -19 18 -7 18 -8 -1 -22 -16 -12 -17 -16 -6 -23 11
-7 10 -11 -5 -19 -18 -10 -18 -11 -1 -17 9 -4 17 -12 17 -17 0 -6 -8 -17 -17
-24 -17 -13 -17 -13 2 -14 14 0 16 -3 7 -12 -9 -9 -9 -15 0 -26 9 -10 8 -16
-2 -22 -12 -8 -12 -10 0 -13 8 -2 30 -9 48 -15 25 -8 39 -8 52 0 14 9 24 8 43
-5 18 -12 27 -13 36 -4 8 8 11 8 11 -1 0 -19 20 -14 21 6 0 13 3 12 11 -5 6
-13 15 -23 20 -23 4 0 8 10 8 23 l1 22 13 -24 13 -23 7 23 c4 18 8 21 15 11 6
-11 10 -10 15 5 7 17 8 17 18 -2 11 -19 12 -18 24 9 11 28 12 29 18 8 9 -26
26 -29 26 -4 1 16 2 16 14 -1 14 -18 15 -17 21 4 6 17 9 19 16 8 15 -23 10
-58 -9 -68 -35 -19 -453 -81 -473 -71 -46 25 -55 213 -20 445 36 243 84 376
117 323z m-506 -15 c-1 -5 -24 -24 -51 -43 -129 -89 -225 -256 -269 -467 -24
-118 -47 -514 -31 -553 7 -19 10 2 10 85 2 277 31 496 83 618 34 81 121 210
156 230 18 10 32 15 32 12 0 -3 -22 -32 -49 -64 -147 -178 -193 -359 -190
-749 1 -111 4 -200 8 -197 3 4 9 122 12 263 6 232 9 267 33 357 48 186 125
306 250 389 75 50 99 55 51 11 l-40 -37 40 26 c22 14 59 32 82 40 53 18 233
33 233 19 0 -6 -37 -12 -83 -15 -97 -5 -188 -42 -256 -103 -57 -51 -44 -57 16
-7 89 74 188 107 282 95 61 -8 46 -24 -26 -28 -62 -3 -161 -41 -208 -79 -11
-9 14 0 56 19 84 39 159 53 203 36 26 -11 28 -15 22 -49 -3 -20 -10 -111 -16
-202 -17 -278 -66 -524 -57 -285 2 61 3 106 1 100 -2 -5 -15 -70 -29 -144 -13
-74 -29 -139 -35 -145 -16 -16 -12 26 14 154 13 63 22 117 21 119 -12 12 -24
-20 -34 -89 -14 -90 -38 -191 -50 -203 -4 -4 -2 27 5 70 15 90 18 176 5 153
-13 -24 -44 -218 -38 -240 3 -14 0 -20 -10 -20 -13 0 -15 11 -11 70 3 38 2 67
-2 65 -4 -3 -16 -37 -26 -77 -16 -63 -19 -69 -24 -43 -5 27 -6 25 -23 -28 -20
-63 -42 -79 -31 -22 10 57 -2 40 -31 -42 -15 -43 -31 -82 -36 -87 -22 -23 -18
9 11 89 17 49 28 90 25 93 -2 3 -7 -1 -9 -9 -44 -131 -58 -165 -77 -185 -12
-13 -24 -22 -26 -20 -2 1 8 27 21 57 42 91 40 119 -2 34 -21 -44 -49 -89 -61
-100 l-22 -19 10 24 c5 14 21 51 35 83 28 61 31 77 17 77 -4 0 -19 -28 -31
-62 -22 -61 -49 -112 -56 -105 -2 1 3 25 11 52 23 74 17 87 -9 22 -13 -31 -36
-73 -51 -93 -29 -38 -28 -52 3 -35 11 6 72 22 135 35 63 13 124 29 135 35 12
6 30 11 41 11 17 0 19 -4 12 -22 -5 -13 -15 -22 -22 -21 -8 2 -22 -16 -32 -40
-18 -40 -19 -41 -30 -19 -10 22 -11 21 -36 -24 -32 -60 -57 -72 -47 -24 6 33
6 33 -14 15 -11 -10 -25 -36 -32 -57 -11 -39 -22 -40 -30 -3 -3 14 -7 9 -13
-18 -8 -41 -26 -45 -35 -7 -6 24 -6 23 -19 -8 -17 -41 -31 -41 -32 1 l0 32
-14 -30 c-7 -16 -17 -39 -21 -50 -6 -16 -9 -12 -14 20 l-5 40 -16 -44 c-19
-55 -39 -65 -39 -21 0 43 -15 30 -29 -25 -11 -43 -31 -54 -31 -17 -1 12 -7 9
-23 -13 l-22 -30 -6 35 -6 35 -12 -32 c-15 -39 -24 -41 -39 -10 -7 14 -11 16
-11 7 -1 -8 -5 -22 -11 -30 -7 -12 -12 -12 -29 4 -21 19 -21 19 -21 -16 0 -43
-17 -97 -39 -121 -14 -16 -63 -137 -56 -137 2 0 17 23 35 50 33 51 56 60 54
22 0 -11 -23 -57 -50 -102 -41 -69 -52 -80 -71 -77 -14 3 -23 -1 -23 -8 0 -7
-15 -44 -34 -81 -28 -55 -30 -63 -11 -40 13 16 31 49 40 73 18 48 30 54 38 21
6 -20 -19 -79 -35 -86 -5 -2 -8 -14 -8 -27 0 -12 -6 -25 -14 -28 -9 -4 -12
-15 -9 -31 7 -35 -14 -59 -46 -53 -17 3 -30 -2 -42 -17 -14 -17 -21 -19 -36
-10 -30 18 -26 40 20 117 110 180 167 323 188 469 6 46 20 97 30 114 11 17 54
54 97 82 79 52 105 79 139 147 32 64 35 89 38 315 4 309 32 459 118 625 26 50
64 102 102 140 75 76 197 149 195 118z m600 -10 c0 -5 -9 -51 -20 -103 -24
-119 -34 -266 -22 -350 9 -58 10 -49 11 86 1 157 12 242 37 297 l15 32 -5 -50
c-3 -27 -11 -97 -17 -154 -11 -102 1 -285 19 -303 4 -4 6 70 4 165 -4 196 19
390 43 366 2 -3 -3 -59 -11 -125 -11 -83 -14 -156 -10 -240 9 -197 24 -189 18
10 -5 182 9 346 30 346 7 0 8 -16 4 -42 -20 -130 -18 -468 2 -468 4 0 6 78 4
172 -3 173 11 338 30 338 6 0 6 -18 1 -47 -11 -68 -8 -415 3 -436 7 -12 10 56
10 205 -1 132 3 230 9 240 7 11 10 -53 10 -205 0 -129 4 -229 10 -239 7 -11
10 61 10 227 0 161 4 248 11 255 7 7 9 -43 7 -177 -3 -104 0 -219 5 -258 8
-62 10 -50 11 110 1 162 13 311 26 324 14 13 16 -14 5 -59 -16 -65 -17 -400
-1 -426 8 -14 11 25 11 156 1 179 17 323 35 318 6 -2 9 -6 8 -9 -11 -33 -23
-203 -23 -325 0 -143 1 -152 20 -157 44 -11 15 -26 -92 -46 -149 -29 -292 -45
-313 -37 -38 14 1 502 46 575 7 12 8 10 4 -9 -18 -92 -26 -174 -30 -310 l-4
-155 9 139 c13 211 44 376 71 376 5 0 9 -3 9 -7z m-240 -13 c0 -5 -22 -10 -50
-10 -27 0 -50 5 -50 10 0 6 23 10 50 10 28 0 50 -4 50 -10z m838 -93 l-73 -82
63 54 c34 30 65 51 68 48 10 -10 -33 -62 -96 -117 -33 -29 -60 -56 -60 -62 0
-6 16 4 35 21 52 45 75 41 36 -6 -17 -21 -46 -56 -64 -78 l-32 -40 63 48 c34
27 62 45 62 41 0 -14 -85 -106 -126 -136 -24 -17 -42 -33 -40 -36 3 -2 24 11
48 31 108 87 131 74 41 -24 -52 -55 -54 -60 -25 -45 19 10 32 12 32 6 0 -26
-23 -50 -65 -69 -49 -22 -60 -37 -19 -27 28 7 26 -2 -9 -41 -19 -22 -19 -22 2
-16 28 7 26 -5 -6 -39 -21 -22 -23 -28 -10 -28 20 0 22 -11 5 -28 -15 -15 -8
-15 26 -2 30 11 33 4 9 -23 -17 -19 -17 -20 0 -14 19 7 47 -13 47 -33 0 -6 3
-9 8 -7 12 8 75 -51 69 -65 -3 -8 -37 -19 -83 -27 -72 -12 -79 -12 -91 5 -7
10 -13 24 -13 31 0 28 -40 91 -74 117 -20 15 -36 33 -36 40 0 7 13 25 30 41
16 15 35 44 41 64 6 20 16 42 22 49 6 7 12 23 13 35 2 12 5 37 8 55 2 18 12
42 22 53 16 17 16 19 1 19 -21 0 -21 9 -1 39 13 19 14 25 4 31 -11 7 -10 14 4
35 10 15 15 34 12 42 -4 9 -2 21 4 28 8 9 8 15 0 20 -17 11 -11 21 28 47 20
14 71 53 112 88 41 34 76 57 78 51 2 -7 -29 -49 -70 -94z m1310 63 c3 -21 2
-22 -12 -11 -19 16 -21 44 -3 39 6 -3 14 -15 15 -28z m128 -55 c21 -66 31
-240 15 -250 -7 -4 -15 -4 -18 -1 -4 3 -12 59 -19 124 -7 64 -15 140 -19 167
-6 47 -5 49 10 30 8 -11 23 -42 31 -70z m212 69 c6 -11 11 -13 16 -5 16 25 22
7 19 -56 -5 -86 -11 -113 -24 -113 -8 0 -10 19 -7 55 4 42 2 52 -8 45 -15 -13
-24 8 -24 56 0 36 13 45 28 18z m-1914 -109 c-7 -49 -17 -146 -22 -215 l-9
-125 -1 140 c-2 166 18 320 38 299 4 -5 2 -49 -6 -99z m45 -7 c-10 -57 -23
-146 -28 -198 l-10 -95 5 120 c6 127 20 260 30 276 3 5 9 7 13 4 5 -2 0 -51
-10 -107z m1781 91 c7 -11 9 -24 5 -27 -7 -7 -35 25 -35 40 0 16 19 8 30 -13z
m-1720 -9 c0 -14 -29 -70 -35 -70 -5 0 1 37 11 68 4 15 24 16 24 2z m2545
-277 c0 -36 -4 -67 -10 -69 -5 -1 -24 27 -42 62 -27 54 -29 66 -17 71 8 3 13
12 10 20 -12 30 7 35 33 9 23 -23 26 -35 26 -93z m-2135 66 c0 -9 9 -19 20
-22 20 -5 28 -27 10 -27 -5 0 -10 -4 -10 -10 0 -5 7 -10 15 -10 23 0 18 -19
-7 -30 -21 -8 -20 -9 10 -9 38 -1 40 -6 10 -32 l-23 -18 28 -1 c23 0 27 -4 29
-32 2 -52 -2 -72 -16 -86 -18 -19 -228 -63 -240 -51 -10 9 -9 10 24 13 8 0 16
13 18 29 4 29 -12 37 -22 12 -5 -14 -9 -14 -32 2 -23 15 -24 18 -10 29 9 6 35
14 59 18 23 4 57 11 76 17 l33 11 -7 120 -7 119 21 -13 c12 -7 21 -20 21 -29z
m1280 -29 c0 -5 -4 -10 -10 -10 -5 0 -10 5 -10 10 0 6 5 10 10 10 6 0 10 -4
10 -10z m-1350 -85 c0 -24 -15 -42 -23 -28 -3 5 -3 20 0 35 6 33 23 27 23 -7z
m196 -50 c10 -16 14 -34 10 -50 -9 -35 -22 -31 -29 8 -3 17 -8 40 -12 50 -11
26 12 21 31 -8z m-196 -15 c0 -5 -4 -10 -9 -10 -6 0 -13 5 -16 10 -3 6 1 10 9
10 9 0 16 -4 16 -10z m2214 -52 c14 -24 26 -56 28 -73 3 -26 0 -30 -21 -30
-14 0 -31 10 -42 25 -16 21 -17 32 -8 73 6 26 12 47 14 47 2 0 15 -19 29 -42z
m-1974 -24 c0 -14 -4 -22 -10 -19 -5 3 -10 17 -10 31 0 14 4 22 10 19 6 -3 10
-17 10 -31z m-44 -86 c-3 -35 -12 -81 -19 -103 l-12 -40 -3 68 c-2 37 -7 67
-11 67 -5 0 -12 -24 -15 -53 -11 -83 -26 -93 -26 -17 0 71 -12 72 -28 0 l-10
-45 -2 55 -2 55 -10 -45 c-22 -97 -40 -149 -55 -162 -15 -11 -16 -11 -9 7 5
11 10 56 12 100 l4 80 -20 -84 c-22 -95 -47 -137 -36 -61 20 130 17 139 -13
50 l-30 -85 5 65 c3 36 7 71 10 78 2 7 0 11 -5 8 -4 -3 -14 -26 -21 -51 -19
-67 -34 -69 -27 -4 l6 54 -17 -35 -16 -35 -4 28 c-2 17 -9 27 -20 27 -13 0
-11 5 9 26 21 20 50 31 144 50 64 14 138 33 164 44 25 10 50 18 55 19 5 1 6
-27 2 -61z m41 -1 c-11 -29 -12 -30 -15 -9 -4 30 5 55 17 47 6 -3 5 -18 -2
-38z m1928 23 c25 -15 32 -26 28 -41 -3 -11 2 -28 11 -38 17 -19 12 -33 -9
-25 -10 4 -12 -1 -8 -15 7 -28 -3 -26 -46 6 -57 43 -64 64 -35 108 20 30 19
30 59 5z m-1935 -86 c0 -8 -5 -12 -10 -9 -6 4 -8 11 -5 16 9 14 15 11 15 -7z
m-2860 -13 c0 -21 -85 -131 -102 -131 -14 0 -5 22 42 90 42 62 60 74 60 41z
m2847 -43 c-3 -8 -6 -5 -6 6 -1 11 2 17 5 13 3 -3 4 -12 1 -19z m-777 -9 c0
-33 -22 -109 -31 -109 -5 0 -9 21 -9 48 -1 53 -13 42 -25 -23 -7 -42 -21 -65
-38 -65 -10 0 -4 70 9 105 5 12 4 16 -4 11 -6 -3 -18 -31 -27 -61 -19 -66 -35
-71 -36 -12 l0 42 -20 -43 c-21 -48 -39 -48 -39 1 l-1 32 -12 -35 c-28 -78
-36 -80 -38 -10 l-1 65 -15 -55 c-8 -30 -18 -59 -23 -64 -14 -14 -22 56 -11
87 6 15 7 27 2 27 -4 0 -12 -15 -17 -32 -12 -40 -47 -46 -52 -9 -3 20 -7 16
-27 -25 -12 -27 -30 -58 -39 -69 -15 -19 -15 -18 -16 28 0 52 21 114 42 122
14 5 381 62 411 64 11 1 17 -6 17 -20z m120 -44 c18 -19 31 -38 27 -41 -10
-11 -51 4 -75 26 -18 17 -21 25 -11 36 16 20 21 18 59 -21z m-20 -51 c48 -35
61 -56 40 -69 -11 -7 -91 37 -110 60 -13 16 -7 45 10 45 5 0 32 -16 60 -36z
m2448 -26 c7 -7 12 -21 12 -32 -1 -20 -1 -20 -20 3 -29 34 -22 59 8 29z
m-3046 -88 c-2 -16 -8 -30 -13 -30 -10 0 -12 53 -3 63 13 13 21 -3 16 -33z
m934 -4 c26 -25 44 -53 44 -66 0 -27 -16 -24 -135 24 -62 25 -80 36 -80 51 0
15 9 22 35 26 78 14 91 11 136 -35z m-138 -35 c31 -16 90 -38 130 -50 39 -12
72 -26 72 -31 0 -21 -104 -10 -160 16 -61 28 -120 70 -120 85 0 15 17 11 78
-20z m-833 10 c3 -5 1 -12 -5 -16 -5 -3 -10 1 -10 9 0 18 6 21 15 7z m-31 -17
c10 -27 7 -44 -9 -44 -10 0 -15 10 -15 30 0 32 14 40 24 14z m-224 -11 c0 -5
-5 -15 -10 -23 -8 -12 -10 -11 -10 8 0 12 5 22 10 22 6 0 10 -3 10 -7z m175
-43 c-5 -8 -11 -8 -17 -2 -6 6 -7 16 -3 22 5 8 11 8 17 2 6 -6 7 -16 3 -22z
m-35 -10 c0 -16 -4 -30 -10 -30 -5 0 -10 14 -10 30 0 17 5 30 10 30 6 0 10
-13 10 -30z m-1500 -28 c0 -37 -15 -60 -24 -37 -8 21 -8 60 0 68 12 12 24 -4
24 -31z m1460 4 c0 -14 -4 -27 -9 -31 -12 -7 -25 31 -16 45 11 18 25 10 25
-14z m-915 4 c4 -6 -5 -10 -19 -10 -14 0 -26 5 -26 10 0 6 9 10 19 10 11 0 23
-4 26 -10z m4180 -50 c0 -26 -5 -45 -12 -47 -9 -3 -13 10 -13 47 0 37 4 50 13
48 7 -3 12 -22 12 -48z m-4199 5 c-11 -8 -29 -15 -40 -15 -21 1 -21 1 -2 15
11 8 29 15 40 15 21 -1 21 -1 2 -15z m3134 -2 c0 -11 -12 -26 -32 -42 -16 -12
-18 -11 -18 2 0 9 7 23 16 31 16 17 34 21 34 9z m30 -42 c0 -11 -11 -33 -25
-49 -14 -17 -25 -43 -26 -58 0 -28 -1 -28 -11 -7 -14 29 -3 84 23 111 25 27
39 28 39 3z m-3187 -38 c-7 -2 -19 -2 -25 0 -7 3 -2 5 12 5 14 0 19 -2 13 -5z
m4240 -31 c39 -40 39 -52 0 -52 -20 0 -23 -4 -18 -19 3 -11 0 -29 -7 -40 -12
-20 -13 -20 -40 6 -16 15 -28 35 -28 45 0 23 37 98 48 98 4 0 25 -17 45 -38z
m-2803 -21 c0 -4 -3 -11 -7 -14 -9 -10 -64 44 -57 55 6 9 64 -28 64 -41z
m1814 4 c-4 -9 0 -15 7 -15 11 0 11 -3 -1 -10 -13 -9 -13 -11 0 -20 8 -5 20
-12 25 -14 6 -3 4 -9 -4 -14 -11 -8 -10 -12 5 -21 15 -8 16 -13 6 -19 -9 -6
-6 -12 13 -20 29 -13 33 -32 8 -33 -12 0 -8 -4 10 -11 32 -12 36 -28 5 -28
-21 0 -21 0 -2 -15 10 -8 14 -15 8 -15 -6 0 -10 -10 -10 -22 1 -17 -5 -24 -21
-26 -18 -3 -23 1 -23 20 0 13 -11 39 -24 59 -55 80 -77 186 -47 222 16 20 54
5 45 -18z m-1870 -4 c17 -18 24 -31 17 -35 -13 -9 -71 33 -71 51 0 22 25 15
54 -16z m-1359 9 c4 -6 -12 -10 -42 -10 -35 0 -44 3 -33 10 20 13 67 13 75 0z
m1325 -35 c26 -27 31 -38 22 -47 -9 -9 -20 -4 -47 22 -36 35 -45 60 -22 60 7
0 28 -16 47 -35z m-53 -37 c25 -23 29 -43 12 -54 -12 -7 -69 44 -69 63 0 20
31 15 57 -9z m1028 -83 c40 -35 46 -44 30 -45 -17 0 -148 98 -190 142 -27 29
117 -59 160 -97z m798 70 c1 -5 -6 -11 -15 -13 -11 -2 -18 3 -18 13 0 17 30
18 33 0z m-1858 -35 c10 -11 15 -23 12 -27 -8 -7 -47 25 -47 39 0 14 16 9 35
-12z m1888 -6 c8 -9 -11 -44 -23 -44 -6 0 -10 8 -10 18 0 27 18 41 33 26z
m-1913 -19 c20 -24 6 -28 -15 -5 -10 11 -13 20 -8 20 6 0 16 -7 23 -15z m-13
-41 c-10 -10 -48 27 -41 38 4 6 16 1 27 -11 12 -11 18 -24 14 -27z m-1361 11
c-27 -21 -53 -20 -36 0 7 8 22 15 34 15 21 -1 21 -1 2 -15z m3329 -24 c0 -7
-10 -20 -22 -28 -20 -14 -23 -14 -29 1 -10 26 4 48 28 44 13 -2 23 -9 23 -17z
m251 4 c-3 -9 3 -19 14 -25 11 -6 17 -16 14 -25 -4 -8 -1 -15 6 -15 6 0 10
-10 8 -22 -2 -17 -11 -24 -32 -26 -27 -3 -28 -6 -23 -40 7 -41 33 -75 41 -51
2 8 7 22 10 32 7 22 53 23 78 0 22 -20 24 -35 3 -27 -22 9 -18 -5 8 -27 19
-16 20 -20 7 -28 -12 -9 -12 -11 2 -16 18 -7 49 -49 52 -70 1 -7 15 -24 31
-38 17 -14 27 -28 23 -32 -8 -8 -65 20 -97 49 l-24 21 22 -37 c31 -51 43 -98
27 -98 -19 0 -40 27 -74 95 -35 68 -39 69 -16 2 9 -25 14 -54 11 -64 -6 -26
-33 39 -40 99 -6 41 -4 49 13 58 15 8 20 21 20 50 0 22 -4 40 -10 40 -5 0 -10
-11 -10 -25 0 -32 -22 -41 -66 -27 -38 11 -45 4 -14 -16 11 -7 20 -19 20 -28
0 -10 6 -14 15 -10 12 4 15 -6 14 -62 -1 -65 -1 -66 -14 -37 -8 17 -14 24 -15
18 0 -7 -4 -13 -10 -13 -5 0 -10 23 -10 52 0 50 0 51 -20 33 -20 -18 -20 -17
-20 10 0 20 -4 26 -15 21 -12 -4 -15 3 -15 29 0 28 -4 35 -19 35 -10 0 -24 7
-31 15 -10 13 -9 15 11 15 30 0 53 15 45 28 -11 19 13 61 39 68 31 8 31 11 0
40 -21 20 -24 27 -15 44 13 24 66 29 56 5z m-1026 -40 c14 -16 10 -18 -14 -9
-9 3 -16 10 -16 15 0 14 16 11 30 -6z m-2540 -3 c0 -10 -65 -42 -83 -42 -20 1
43 50 64 50 10 0 19 -4 19 -8z m2943 -18 c14 -14 30 -38 36 -54 14 -42 -6 -49
-23 -8 -8 18 -24 45 -36 61 -27 34 -11 35 23 1z m407 0 c0 -8 -10 -14 -25 -14
-26 0 -35 25 -12 33 18 6 37 -3 37 -19z m-420 -54 c25 -35 38 -104 22 -114 -6
-3 -17 16 -27 46 -10 29 -26 68 -36 86 -18 32 -18 32 0 22 11 -5 29 -24 41
-40z m-2920 21 c0 -5 -20 -16 -45 -24 -48 -17 -59 -9 -22 16 24 17 67 22 67 8z
m2632 -2 c24 -13 48 -67 48 -109 0 -17 9 -56 20 -87 22 -63 25 -108 10 -148
-14 -36 6 -80 69 -149 67 -74 68 -105 7 -231 -41 -84 -139 -235 -152 -235 -4
0 -1 6 5 14 6 7 8 21 5 30 -4 11 -2 16 7 14 7 -2 15 6 17 17 2 11 10 24 18 28
8 4 14 16 14 25 0 10 5 23 11 29 6 6 9 18 7 27 -3 16 6 21 -179 -95 -73 -45
-76 -46 -71 -22 3 16 7 21 12 13 12 -19 30 -2 31 28 1 17 3 21 6 9 7 -27 23
-10 24 26 0 30 1 30 10 9 12 -32 29 -18 30 26 0 32 1 34 9 15 5 -13 15 -23 21
-23 8 0 10 18 7 63 -5 58 -5 60 8 32 7 -16 13 -38 14 -48 0 -10 5 -15 10 -12
7 4 9 31 5 68 l-5 62 20 -50 20 -50 -6 75 c-6 81 10 83 22 3 3 -24 10 -41 14
-38 15 10 -33 215 -51 215 -4 0 -10 -8 -12 -17 -3 -10 -6 -2 -7 17 -1 35 -1
35 -14 -13 -19 -69 -32 -75 -28 -14 3 58 -11 48 -22 -15 -9 -50 -26 -59 -26
-14 0 20 -4 36 -10 36 -5 0 -10 -15 -10 -32 -1 -18 -7 -44 -16 -58 -14 -24
-14 -22 -8 28 4 35 2 52 -5 52 -6 0 -11 -12 -11 -27 0 -16 -5 -35 -10 -43 -6
-10 -8 -3 -3 23 6 40 -8 51 -26 20 -6 -10 -11 -12 -11 -6 0 17 -39 11 -52 -8
-7 -11 -11 -11 -15 -1 -6 15 -33 16 -33 1 0 -5 -4 -7 -10 -4 -5 3 -10 23 -9
43 l1 37 11 -27 c6 -16 14 -28 19 -28 4 0 8 12 8 28 1 24 2 25 14 10 19 -25
24 -22 18 8 -3 19 -1 25 7 20 6 -4 11 -14 11 -22 0 -8 5 -14 10 -14 6 0 10 14
10 31 0 17 4 28 10 24 6 -3 10 -15 10 -26 0 -10 5 -19 10 -19 6 0 10 10 10 23
1 20 2 20 11 4 14 -23 29 -12 30 21 l0 27 11 -25 c10 -25 10 -25 23 15 11 36
13 37 14 13 1 -31 17 -38 25 -10 26 89 48 288 30 269 -3 -3 -10 -40 -15 -82
-6 -43 -15 -91 -22 -107 -11 -26 -12 -20 -9 52 3 44 0 107 -4 138 -8 55 -8 52
-14 -58 -8 -138 -25 -187 -25 -72 -1 74 -21 198 -34 206 -3 2 -5 -24 -4 -57 2
-58 1 -60 -8 -25 -6 20 -20 45 -31 55 -20 18 -21 17 -15 -2 16 -55 18 -75 9
-75 -6 0 -13 8 -16 18 -4 11 -18 30 -33 43 -23 21 -25 22 -18 4 4 -11 10 -31
12 -45 5 -22 4 -23 -8 -9 -19 22 -75 59 -89 59 -6 0 0 -14 14 -31 14 -17 26
-35 26 -40 0 -11 -49 21 -70 46 -18 22 -30 18 -30 -10 0 -30 -9 -31 -43 -5
-30 24 -38 25 -30 4 4 -12 -6 -9 -37 11 l-43 27 7 -29 8 -28 -29 28 c-16 15
-36 27 -44 27 -8 0 -20 9 -27 20 -12 19 -10 20 83 20 120 0 247 14 395 44 63
13 119 24 123 25 5 0 17 -4 29 -10z m-2628 -38 c7 -10 -38 -31 -67 -31 -20 0
-19 2 8 20 32 21 51 25 59 11z m1907 -46 c8 -28 7 -29 -6 -11 -8 11 -15 23
-15 27 0 4 -10 10 -22 12 -16 4 -14 5 6 4 24 -2 31 -8 37 -32z m59 -3 c-7 -3
-16 2 -21 9 -16 25 -9 32 12 13 13 -12 16 -20 9 -22z m948 -60 c7 -23 8 -40 2
-46 -6 -6 -21 15 -40 57 -16 37 -30 70 -30 74 0 19 58 -53 68 -85z m-2932 53
c-11 -8 -27 -15 -35 -15 -13 1 -12 4 3 15 11 8 27 15 35 15 13 -1 12 -4 -3
-15z m2905 -111 c23 -44 3 -49 -24 -7 -15 24 -27 45 -27 48 0 12 40 -20 51
-41z m-2835 27 c-9 -14 -66 -34 -74 -27 -10 11 28 36 56 36 13 0 21 -4 18 -9z
m9 -46 c-33 -27 -63 -40 -72 -31 -10 9 27 44 51 49 46 9 50 6 21 -18z m2445
-40 c0 -45 -16 -102 -26 -92 -3 3 -2 37 2 76 7 76 24 87 24 16z m-139 -88 c-8
-8 -11 3 -11 35 0 71 14 94 18 29 2 -30 -2 -59 -7 -64z m75 67 c-9 -66 -25
-91 -26 -39 0 50 9 85 23 85 6 0 7 -17 3 -46z m434 -20 c0 -8 -2 -14 -5 -14
-6 0 -35 56 -35 67 1 14 40 -39 40 -53z m-1626 33 c16 -12 16 -15 -9 -57 -15
-25 -25 -38 -22 -30 2 8 7 25 11 38 12 36 -20 40 -57 6 l-31 -29 18 28 c26 43
9 47 -27 7 -25 -29 -27 -30 -13 -7 24 40 10 48 -20 12 -18 -21 -22 -24 -15 -8
15 29 14 33 -4 27 -8 -4 -15 -14 -15 -23 0 -13 -2 -14 -10 -1 -7 12 -12 11
-31 -5 -16 -15 -21 -16 -17 -5 2 8 19 25 38 38 27 18 47 22 110 22 46 0 83 -5
94 -13z m191 -3 c40 -12 76 -14 178 -9 94 5 132 4 142 -5 21 -18 19 -29 -9
-40 -35 -13 -125 -125 -157 -195 -21 -44 -28 -54 -28 -35 -1 35 31 101 85 179
l46 66 -76 -77 c-42 -43 -76 -74 -76 -70 0 5 16 34 35 67 20 32 34 60 32 62
-2 2 -20 -14 -40 -36 -69 -76 -106 -177 -108 -291 -1 -86 -17 -50 -18 41 -1
71 19 154 51 209 l20 35 -48 -45 c-51 -49 -50 -44 8 42 21 31 38 59 38 62 0 3
-12 1 -27 -5 -17 -6 -29 -7 -31 -1 -2 6 -12 8 -22 5 -12 -3 -20 0 -20 8 0 7
-11 3 -26 -12 l-27 -24 7 28 c7 30 -4 35 -28 11 -15 -14 -16 -14 -16 5 0 21
24 40 50 41 8 0 38 -7 65 -16z m795 -34 c0 -27 -4 -50 -10 -50 -5 0 -10 23
-10 50 0 28 5 50 10 50 6 0 10 -22 10 -50z m100 0 c0 -14 -4 -32 -9 -39 -8
-12 -11 -9 -16 12 -9 36 3 87 16 66 5 -7 9 -25 9 -39z m-2275 30 c-3 -5 -16
-10 -28 -10 -18 0 -19 2 -7 10 20 13 43 13 35 0z m1990 -58 c-10 -10 -25 21
-24 48 1 23 2 22 15 -9 8 -18 12 -36 9 -39z m47 28 c2 -14 -1 -27 -7 -30 -6
-3 -11 13 -13 35 -4 44 14 39 20 -5z m98 -19 c-1 -25 -1 -25 -15 -7 -8 11 -15
31 -15 45 1 25 1 25 15 7 8 -11 15 -31 15 -45z m90 14 c0 -19 -4 -37 -10 -40
-6 -4 -10 12 -10 40 0 28 4 44 10 40 6 -3 10 -21 10 -40z m-136 19 c9 -24 7
-64 -3 -64 -11 0 -21 25 -21 56 0 27 15 32 24 8z m-204 -34 c0 -13 -1 -13 -10
0 -5 8 -10 22 -10 30 0 13 1 13 10 0 5 -8 10 -22 10 -30z m50 4 c0 -14 -4 -22
-10 -19 -5 3 -10 17 -10 31 0 14 4 22 10 19 6 -3 10 -17 10 -31z m-96 10 c11
-28 6 -39 -9 -20 -8 11 -15 23 -15 28 0 14 18 9 24 -8z m-1534 -1 c0 -10 -62
-73 -72 -73 -16 0 -7 22 21 51 28 27 51 38 51 22z m547 -9 c3 -8 1 -20 -5 -26
-6 -6 -8 -18 -5 -27 4 -13 2 -12 -10 2 -15 18 -16 17 -20 -10 -4 -27 -5 -27
-12 -5 -12 36 -25 25 -25 -20 l-1 -43 -18 34 c-17 32 -19 33 -29 15 -11 -19
-11 -18 -13 1 0 16 -3 14 -14 -10 l-14 -30 -1 36 c0 34 3 37 61 67 69 35 97
40 106 16z m-413 -15 c6 -5 -1 -21 -19 -39 -38 -39 -50 -38 -29 3 l17 32 -25
-22 c-30 -28 -42 -29 -28 -3 8 15 8 20 -2 20 -7 1 -2 7 12 15 25 14 56 11 74
-6z m204 -21 c15 -15 1 -40 -38 -68 -27 -19 -29 -19 -23 -3 3 10 10 24 16 31
14 18 -8 15 -23 -3 -19 -22 -32 -18 -24 8 7 22 6 22 -15 3 -21 -19 -28 -13
-13 11 18 28 98 43 120 21z m972 -97 c0 -5 -7 -14 -15 -21 -12 -10 -15 -10
-15 2 0 8 3 18 7 21 9 10 23 9 23 -2z m-1000 -93 l0 -61 -22 19 -21 19 6 -34
c6 -27 5 -31 -6 -22 -17 13 -27 5 -28 -23 0 -19 -1 -18 -10 4 -19 46 29 160
67 160 11 0 14 -15 14 -62z m1628 37 c14 -31 15 -35 3 -35 -5 0 -14 14 -20 30
-12 36 1 40 17 5z m-669 -37 c-7 -13 -14 -18 -16 -11 -3 7 1 22 8 35 7 13 14
18 16 11 3 -7 -1 -22 -8 -35z m631 -1 c0 -10 -4 -15 -10 -12 -5 3 -10 18 -10
33 0 21 2 24 10 12 5 -8 10 -23 10 -33z m-40 -7 c0 -13 -1 -13 -10 0 -5 8 -10
22 -10 30 0 13 1 13 10 0 5 -8 10 -22 10 -30z m228 -37 c-3 -42 -28 -59 -28
-20 0 32 9 57 22 57 5 0 8 -17 6 -37z m-68 -33 c0 -19 -17 -36 -27 -26 -3 3
-2 17 1 31 7 28 26 25 26 -5z m30 11 c0 -11 -4 -23 -10 -26 -6 -4 -10 5 -10
19 0 14 5 26 10 26 6 0 10 -9 10 -19z m-70 -20 c0 -6 -4 -13 -10 -16 -5 -3
-10 1 -10 9 0 9 5 16 10 16 6 0 10 -4 10 -9z m-930 -103 c0 -4 -4 -8 -8 -8
-12 0 -32 46 -32 73 0 16 5 12 20 -18 11 -22 20 -43 20 -47z m110 52 c0 -16
-4 -30 -10 -30 -5 0 -10 14 -10 30 0 17 5 30 10 30 6 0 10 -13 10 -30z m-1374
-24 c3 -13 17 -34 30 -47 13 -12 24 -27 24 -33 0 -5 10 -20 21 -32 28 -29 19
-54 -20 -54 -48 0 -70 27 -86 105 -19 88 -19 85 5 85 12 0 22 -9 26 -24z m854
-47 c0 -6 -4 -7 -10 -4 -5 3 -10 11 -10 16 0 6 5 7 10 4 6 -3 10 -11 10 -16z
m2190 -39 c-7 -16 -17 -30 -22 -30 -11 0 -1 38 15 58 16 21 21 5 7 -28z
m-2191 -10 c12 -18 13 -22 2 -19 -8 3 -21 16 -30 29 -12 18 -13 22 -2 19 8 -3
21 -16 30 -29z m-383 5 c18 -14 18 -14 -8 -15 -34 0 -59 10 -52 21 8 14 38 11
60 -6z m2679 -17 c-10 -33 -34 -68 -46 -68 -6 0 -8 9 -4 23 10 32 34 67 46 67
6 0 8 -9 4 -22z m-347 -23 c7 -14 12 -32 12 -39 0 -8 9 -20 20 -27 10 -8 22
-27 25 -44 5 -21 4 -26 -3 -16 -5 7 -15 10 -21 6 -9 -5 -8 -10 4 -18 14 -11
14 -14 0 -35 -9 -12 -23 -22 -31 -22 -17 0 -17 5 -2 33 16 29 17 69 2 56 -16
-13 -25 1 -13 22 8 15 6 17 -7 12 -14 -5 -16 -2 -10 21 4 18 3 25 -4 21 -6 -4
-10 6 -10 24 0 38 22 41 38 6z m385 5 c-6 -22 -23 -38 -23 -21 0 17 12 41 20
41 5 0 6 -9 3 -20z m-2363 -16 c0 -8 -4 -12 -10 -9 -5 3 -10 13 -10 21 0 8 5
12 10 9 6 -3 10 -13 10 -21z m-335 6 c4 -6 -6 -10 -24 -10 -16 0 -33 5 -36 10
-4 6 6 10 24 10 16 0 33 -4 36 -10z m305 -36 c6 -14 10 -33 10 -42 0 -14 -2
-14 -14 -2 -18 20 -30 70 -16 70 6 0 15 -12 20 -26z m-310 6 c12 -8 9 -10 -13
-10 -16 0 -26 4 -22 10 8 12 16 12 35 0z m-470 -25 c7 -9 10 -18 7 -21 -3 -3
4 -15 16 -27 19 -19 19 -21 3 -27 -16 -5 -17 -7 -2 -19 21 -18 21 -32 -1 -24
-11 4 -14 3 -9 -5 14 -22 -25 -12 -49 13 -18 17 -25 35 -25 63 0 56 32 81 60
47z m80 -49 c0 -31 -16 -42 -28 -19 -12 22 -5 43 14 43 8 0 14 -10 14 -24z
m1120 -11 c0 -19 0 -38 1 -42 2 -19 -22 -12 -32 10 -8 18 -8 30 0 46 17 32 31
25 31 -14z m1254 -1 c3 -8 2 -12 -4 -9 -6 3 -10 10 -10 16 0 14 7 11 14 -7z
m-1210 -11 c3 -10 9 -24 12 -30 3 -8 -1 -13 -10 -13 -17 0 -38 38 -29 53 7 12
20 8 27 -10z m421 -233 c-3 -5 -15 -10 -26 -10 -11 0 -17 5 -14 10 3 6 15 10
26 10 11 0 17 -4 14 -10z m45 -44 c0 -14 -21 -26 -46 -26 -22 0 -16 20 9 30
31 12 37 12 37 -4z m-385 -6 c-3 -5 -12 -10 -20 -10 -8 0 -17 5 -20 10 -4 6 5
10 20 10 15 0 24 -4 20 -10z m435 -24 c0 -17 -54 -41 -70 -31 -17 11 18 45 47
45 13 0 23 -6 23 -14z m1398 -13 c3 -20 1 -21 -34 -11 -20 5 -48 8 -60 5 -13
-2 -24 -1 -24 4 0 16 36 29 75 26 33 -2 41 -6 43 -24z m-1773 -23 c-3 -6 4
-10 17 -10 22 -1 22 -1 4 -15 -11 -8 -36 -15 -55 -15 -27 0 -32 3 -21 10 12 8
12 10 -5 10 -20 1 -20 1 -1 15 22 17 71 21 61 5z m1455 -23 c0 -5 -4 -5 -10
-2 -5 3 -10 14 -10 23 0 15 2 15 10 2 5 -8 10 -19 10 -23z m-30 -8 c0 -11 -4
-17 -10 -14 -5 3 -10 15 -10 26 0 11 5 17 10 14 6 -3 10 -15 10 -26z m91 16
c-1 -15 -24 -12 -29 3 -3 9 2 13 12 10 10 -1 17 -7 17 -13z m-1476 -35 c-3 -5
-18 -10 -33 -10 -21 0 -24 2 -12 10 20 13 53 13 45 0z m16 -29 c-8 -5 -20 -7
-28 -4 -21 8 -15 13 15 13 20 0 23 -3 13 -9z"/>
<path d="M3492 5914 c3 -25 8 -29 39 -32 23 -2 40 2 49 13 18 22 2 35 -50 42
-41 6 -42 5 -38 -23z m68 -10 c0 -9 -7 -14 -17 -12 -25 5 -28 28 -4 28 12 0
21 -6 21 -16z"/>
<path d="M4510 5799 c0 -30 32 -119 43 -119 6 0 -31 141 -38 148 -3 3 -5 -10
-5 -29z"/>
<path d="M4470 5749 c9 -30 36 -79 44 -79 2 0 -6 25 -17 55 -24 59 -41 75 -27
24z"/>
<path d="M4410 5734 c1 -26 33 -96 53 -113 12 -9 7 9 -15 55 -37 81 -38 83
-38 58z"/>
<path d="M4360 5690 c0 -28 47 -115 76 -140 16 -14 23 -18 17 -10 -6 8 -29 49
-52 90 -22 41 -41 68 -41 60z"/>
<path d="M4321 5639 c-1 -26 56 -133 85 -160 28 -25 25 -15 -9 34 -11 16 -32
54 -48 85 -15 31 -28 50 -28 41z"/>
<path d="M4286 5580 c9 -52 48 -121 90 -160 l37 -35 -41 62 c-23 34 -53 85
-67 115 -22 47 -24 49 -19 18z"/>
<path d="M4762 5535 c2 -44 10 -89 16 -100 8 -16 10 0 5 70 -3 50 -10 95 -15
100 -7 7 -9 -18 -6 -70z"/>
<path d="M4691 5553 c-1 -28 3 -54 8 -57 5 -3 6 16 4 42 -7 69 -11 74 -12 15z"/>
<path d="M4727 5557 c-4 -31 -2 -59 7 -80 13 -30 13 -28 9 38 -6 93 -8 99 -16
42z"/>
<path d="M4809 5519 c-2 -62 2 -92 12 -109 5 -9 6 18 2 65 -7 91 -12 109 -14
44z"/>
<path d="M4256 5520 c9 -47 35 -96 84 -158 58 -74 69 -65 14 11 -26 34 -60 89
-76 122 -23 49 -27 54 -22 25z"/>
<path d="M4851 5464 c-1 -40 4 -67 14 -80 10 -13 13 -14 10 -3 -3 9 -10 45
-14 80 l-8 64 -2 -61z"/>
<path d="M4220 5485 c0 -49 104 -220 150 -245 11 -6 -2 18 -32 57 -28 38 -66
100 -84 138 -18 39 -33 61 -34 50z"/>
<path d="M4890 5424 c3 -30 11 -59 18 -66 9 -9 9 -4 2 23 -6 18 -10 46 -10 61
0 15 -4 29 -8 32 -4 2 -5 -20 -2 -50z"/>
<path d="M4195 5425 c14 -66 64 -153 125 -216 69 -70 68 -65 -5 26 -27 33 -66
96 -87 140 -22 44 -36 67 -33 50z"/>
<path d="M4931 5399 c0 -19 6 -44 14 -55 13 -17 13 -16 5 16 -5 19 -11 44 -13
55 -3 11 -5 5 -6 -16z"/>
<path d="M4172 5353 c17 -65 69 -151 131 -219 33 -35 62 -63 64 -60 3 3 -23
38 -57 78 -34 41 -79 110 -101 156 -22 45 -41 82 -43 82 -3 0 0 -17 6 -37z"/>
<path d="M4971 5370 c0 -14 6 -36 14 -50 18 -32 18 -26 1 30 -11 32 -15 38
-15 20z"/>
<path d="M4146 5315 c14 -73 77 -178 152 -254 75 -76 69 -64 -22 45 -26 33
-68 100 -92 149 -24 50 -41 77 -38 60z"/>
<path d="M4125 5255 c20 -86 85 -195 173 -287 74 -78 88 -74 20 5 -79 89 -132
168 -158 234 -27 68 -45 92 -35 48z"/>
<path d="M4106 5205 c10 -52 69 -168 117 -230 45 -59 157 -175 157 -163 0 3
-39 50 -86 105 -65 75 -98 124 -140 208 -30 61 -52 97 -48 80z"/>
<path d="M4090 5149 c0 -21 64 -152 100 -204 43 -62 122 -151 172 -194 l43
-36 -41 50 c-23 28 -54 61 -69 75 -52 48 -115 139 -160 231 -25 51 -45 86 -45
78z"/>
<path d="M4516 4380 c6 -8 16 -24 22 -35 6 -11 12 -15 12 -8 0 7 -10 22 -22
35 -13 13 -18 17 -12 8z"/>
<path d="M4516 4289 c22 -31 40 -55 42 -54 7 6 -27 61 -53 85 -22 21 -20 15
11 -31z"/>
<path d="M4494 4236 c21 -27 46 -66 57 -88 22 -43 33 -51 19 -13 -19 50 -39
81 -75 115 l-38 35 37 -49z"/>
<path d="M4484 4167 c21 -27 52 -72 68 -100 24 -42 28 -46 23 -22 -9 44 -55
114 -95 144 l-35 26 39 -48z"/>
<path d="M4370 3582 c0 -11 123 -172 166 -218 22 -22 29 -29 18 -15 -12 14
-56 74 -98 134 -74 102 -86 116 -86 99z"/>
<path d="M4528 3534 c12 -18 42 -54 68 -80 38 -41 36 -37 -12 21 -67 83 -85
102 -56 59z"/>
<path d="M2458 3631 c-25 -27 -61 -80 -81 -118 -35 -68 -78 -199 -76 -238 0
-11 8 12 18 50 36 137 86 236 158 315 19 22 33 40 30 40 -3 0 -25 -22 -49 -49z"/>
<path d="M2292 3220 c0 -19 2 -27 5 -17 2 9 2 25 0 35 -3 9 -5 1 -5 -18z"/>
<path d="M2282 3150 c0 -14 2 -19 5 -12 2 6 2 18 0 25 -3 6 -5 1 -5 -13z"/>
<path d="M3970 3350 c0 -5 6 -10 14 -10 8 0 18 5 21 10 3 6 -3 10 -14 10 -12
0 -21 -4 -21 -10z"/>
<path d="M3922 3290 c0 -14 2 -19 5 -12 2 6 2 18 0 25 -3 6 -5 1 -5 -13z"/>
<path d="M3950 3294 c0 -8 5 -12 10 -9 6 3 10 10 10 16 0 5 -4 9 -10 9 -5 0
-10 -7 -10 -16z"/>
<path d="M3880 3288 c0 -7 5 -20 10 -28 8 -12 10 -9 10 13 0 15 -4 27 -10 27
-5 0 -10 -6 -10 -12z"/>
<path d="M3851 3274 c0 -11 3 -14 6 -6 3 7 2 16 -1 19 -3 4 -6 -2 -5 -13z"/>
<path d="M5265 2060 c3 -5 16 -15 28 -21 22 -12 22 -12 3 10 -19 21 -43 30
-31 11z"/>
</g>
</svg>
